<svg
    width="200px"
    height="200px"
    viewBox="0 0 64 64"
    xmlns="http://www.w3.org/2000/svg"
>
    <g>
        <path
            fill="#3498db"
            d="M25,60c-2.2,0-4-1.8-4-4s1.8-4,4-4s4,1.8,4,4S27.2,60,25,60z M25,55c-0.6,0-1,0.4-1,1s0.4,1,1,1s1-0.4,1-1
		S25.6,55,25,55z"
        />
        <path
            fill="#3498db"
            d="M47,60c-2.2,0-4-1.8-4-4s1.8-4,4-4s4,1.8,4,4S49.2,60,47,60z M47,55c-0.6,0-1,0.4-1,1s0.4,1,1,1
		s1-0.4,1-1S47.6,55,47,55z"
        />
        <path
            fill="#2c3e50"
            d="M55,46H22c-0.4,0-0.8-0.3-0.9-0.7L13.1,14H3c-0.6,0-1-0.4-1-1s0.4-1,1-1h10c0.4,0,0.8,0.3,0.9,0.7
		l8,31.3H55c0.6,0,1,0.4,1,1S55.6,46,55,46z"
        />
        <path
            fill="#e74c3c"
            d="M18.1,29c-0.4,0-0.8-0.3-0.9-0.7l-2-8c-0.1-0.5,0.2-1.1,0.7-1.2c0.5-0.1,1.1,0.2,1.2,0.7l2,8
		c0.1,0.5-0.2,1.1-0.7,1.2C18.2,29,18.2,29,18.1,29z"
        />
        <path
            fill="#e74c3c"
            d="M25.1,29c-0.4,0-0.8-0.3-0.9-0.7l-2-8c-0.1-0.5,0.2-1.1,0.7-1.2c0.5-0.1,1.1,0.2,1.2,0.7l2,8
		c0.1,0.5-0.2,1.1-0.7,1.2C25.2,29,25.1,29,25.1,29z"
        />
        <path
            fill="#e74c3c"
            d="M32.1,29c-0.4,0-0.8-0.3-0.9-0.7l-2-8c-0.1-0.5,0.2-1.1,0.7-1.2c0.5-0.1,1.1,0.2,1.2,0.7l2,8
		c0.1,0.5-0.2,1.1-0.7,1.2C32.2,29,32.2,29,32.1,29z"
        />
        <path
            fill="#e74c3c"
            d="M39.1,29c-0.4,0-0.8-0.3-0.9-0.7l-2-8c-0.1-0.5,0.2-1.1,0.7-1.2c0.5-0.1,1.1,0.2,1.2,0.7l2,8
		c0.1,0.5-0.2,1.1-0.7,1.2C39.2,29,39.2,29,39.1,29z"
        />
        <path
            fill="#e74c3c"
            d="M46.1,29c-0.4,0-0.8-0.3-0.9-0.7l-2-8c-0.1-0.5,0.2-1.1,0.7-1.2c0.5-0.1,1.1,0.2,1.2,0.7l2,8
		c0.1,0.5-0.2,1.1-0.7,1.2C46.2,29,46.2,29,46.1,29z"
        />
        <path
            fill="#e74c3c"
            d="M53.1,29c-0.4,0-0.8-0.3-0.9-0.7l-2-8c-0.1-0.5,0.2-1.1,0.7-1.2c0.5-0.1,1.1,0.2,1.2,0.7l2,8
		c0.1,0.5-0.2,1.1-0.7,1.2C53.2,29,53.2,29,53.1,29z"
        />
        <path
            fill="#2c3e50"
            d="M21,46c-0.5,0-0.9-0.3-1-0.8l-2-10c-0.1-0.5,0.2-1.1,0.8-1.2c0.5-0.1,1.1,0.2,1.2,0.8l2,10
		c0.1,0.5-0.2,1.1-0.8,1.2C21.1,46,21,46,21,46z"
        />
        <path
            fill="#2c3e50"
            d="M55,40H19c-0.6,0-1-0.4-1-1s0.4-1,1-1h36c0.6,0,1,0.4,1,1S55.6,40,55,40z"
        />
    </g>
    <text
        x="32"
        y="15"
        font-family="Arial, sans-serif"
        font-size="12"
        font-weight="bold"
        fill="#3498db"
        text-anchor="middle"
    >
        Alissonics
    </text>
</svg>